<?xml version="1.0" standalone="no"?>
<!DOCTYPE svg PUBLIC "-//W3C//DTD SVG 1.1//EN" "http://www.w3.org/Graphics/SVG/1.1/DTD/svg11.dtd" >
<svg xmlns="http://www.w3.org/2000/svg" xmlns:xlink="http://www.w3.org/1999/xlink" version="1.1">
<metadata></metadata>
<defs>
<font id="didact_gothicregular" horiz-adv-x="1148" >
<font-face units-per-em="2048" ascent="1638" descent="-410" />
<missing-glyph horiz-adv-x="456" />
<glyph unicode="&#xfb01;" horiz-adv-x="1036" d="M57 831v127h123v261q0 133 85 218t218 85h58v-127h-58q-72 0 -118 -49.5t-46 -126.5v-261h512v-958h-139v831h-373v-831h-139v831h-123zM651 1257q0 45 32 77t79 32q45 0 77.5 -31.5t32.5 -79.5q0 -45 -32.5 -77.5t-77.5 -32.5q-47 0 -79 32.5t-32 79.5z" />
<glyph unicode="&#xfb02;" horiz-adv-x="978" d="M57 831v127h123v261q0 133 96.5 218t247.5 85q127 0 318 -35v-1487h-140v1384q-90 12 -178 13q-90 0 -147.5 -50.5t-57.5 -127.5v-261h222v-127h-222v-831h-139v831h-123z" />
<glyph horiz-adv-x="0" />
<glyph unicode="&#xd;" horiz-adv-x="456" />
<glyph horiz-adv-x="0" />
<glyph horiz-adv-x="0" />
<glyph unicode=" "  horiz-adv-x="456" />
<glyph unicode="&#x09;" horiz-adv-x="456" />
<glyph unicode="&#xa0;" horiz-adv-x="456" />
<glyph unicode="!" horiz-adv-x="475" d="M129 96q0 45 33 78t78 33q47 0 78.5 -33t31.5 -80q0 -45 -31.5 -77.5t-78.5 -32.5q-45 0 -78 32.5t-33 79.5zM168 381v1016h139v-1016h-139z" />
<glyph unicode="&#x22;" horiz-adv-x="589" d="M103 1397h139l-20 -467h-99zM348 1397h139l-20 -467h-99z" />
<glyph unicode="#" horiz-adv-x="1253" d="M123 432v127h229l35 291h-203v127h219l52 401h127l-52 -401h347l51 401h127l-51 -401h208v-127h-225l-35 -291h199v-127h-215l-47 -371h-127l47 371h-346l-47 -371h-127l47 371h-213zM479 559h346l35 291h-346z" />
<glyph unicode="$" horiz-adv-x="1193" d="M145 279l121 104q63 -98 159.5 -160.5t209.5 -75.5v508q-414 100 -414 375q0 170 111.5 261t312.5 95v191h84v-195q246 -23 406 -215l-117 -98q-61 82 -131 126t-162 56v-475q193 -53 298 -146t105 -261q0 -152 -112.5 -250.5t-304.5 -106.5v-192h-84v192 q-139 8 -267.5 80t-214.5 187zM371 1042q0 -92 61.5 -146t208.5 -97v456q-119 -4 -194.5 -61t-75.5 -152zM719 143q127 7 193.5 66t66.5 160q0 104 -64.5 164.5t-195.5 99.5v-490z" />
<glyph unicode="%" horiz-adv-x="1511" d="M51 1061q0 147 83 241.5t212 94.5t212 -94.5t83 -241.5q0 -102 -37 -184t-103.5 -128.5t-150.5 -46.5q-86 0 -154.5 46.5t-106.5 127t-38 185.5zM172 1061q0 -104 47 -170t123 -66q78 0 128 64.5t50 167.5q0 96 -50 157.5t-128 61.5q-76 0 -123 -60.5t-47 -154.5zM244 39 l880 1399l111 -60l-877 -1396zM870 358q0 147 83 241.5t212 94.5t212 -94t83 -242q0 -102 -37 -184t-103.5 -128t-150.5 -46q-86 0 -154.5 46t-106.5 127t-38 185zM991 358q0 -104 47 -169.5t123 -65.5q78 0 128 64.5t50 166.5q0 96 -50 157.5t-128 61.5q-76 0 -123 -60 t-47 -155z" />
<glyph unicode="&#x26;" horiz-adv-x="1089" d="M92 299q0 123 58.5 214t187.5 210l-39 47q-84 100 -114.5 177t-30.5 155q0 143 76.5 225t220.5 82q127 0 210.5 -68.5t86.5 -214.5q0 -117 -61.5 -213t-172.5 -196l309 -373q35 80 51 162l121 -17q-31 -145 -88 -247l203 -242h-164l-112 135q-152 -170 -388 -170 q-172 0 -263 90t-91 244zM233 303q0 -96 60.5 -153.5t173.5 -57.5q174 0 287 137l-338 402q-92 -84 -137.5 -165t-45.5 -163zM293 1110q0 -72 23.5 -129t86.5 -133l31 -37q92 92 132 158.5t40 138.5q0 86 -41 130t-112 44q-74 0 -117 -45t-43 -127z" />
<glyph unicode="'" horiz-adv-x="380" d="M121 1397h139l-20 -467h-99z" />
<glyph unicode="(" horiz-adv-x="479" d="M88 694q0 256 39 435.5t108.5 269.5t161.5 90v-127q-51 0 -90 -87t-61.5 -239.5t-22.5 -341.5q0 -186 22.5 -337.5t62.5 -237.5t89 -86v-127q-92 0 -161.5 89t-108.5 266t-39 433z" />
<glyph unicode=")" horiz-adv-x="479" d="M88 33q49 0 89 86t62.5 237.5t22.5 337.5q0 188 -22.5 341t-61.5 240t-90 87v127q92 0 161.5 -90t108.5 -269.5t39 -435.5t-39 -433t-108.5 -266t-161.5 -89v127z" />
<glyph unicode="*" horiz-adv-x="729" d="M102 1114v96h179l-88 154l83 47l91 -154l88 154l84 -47l-88 -154h176v-96h-178l90 -156l-84 -49l-88 154l-91 -154l-83 49l90 156h-181z" />
<glyph unicode="+" horiz-adv-x="1024" d="M102 580v112h349v369h122v-369h349v-112h-349v-349h-122v349h-349z" />
<glyph unicode="," horiz-adv-x="417" d="M96 96q0 51 31 81t80 30q51 0 84 -38t33 -95q0 -100 -57.5 -193.5t-147.5 -140.5l-21 39q115 76 115 205q-49 0 -83 31.5t-34 80.5z" />
<glyph unicode="-" horiz-adv-x="696" d="M117 446v115h465v-115h-465z" />
<glyph unicode="." horiz-adv-x="415" d="M98 96q0 45 32 78t77 33q47 0 79.5 -33t32.5 -80q0 -45 -32.5 -77.5t-79.5 -32.5q-45 0 -77 32.5t-32 79.5z" />
<glyph unicode="/" horiz-adv-x="772" d="M70 0l508 1397h127l-508 -1397h-127z" />
<glyph unicode="0" d="M59 698q0 209 65.5 376t179.5 260t251 93t251 -93t179.5 -260t65.5 -376t-65.5 -375.5t-178.5 -261t-250 -94.5t-252 94.5t-180.5 261t-65.5 375.5zM217 698q0 -174 43 -310t120 -211t175 -75t174 75t119 211t43 310t-43 309.5t-119 210t-174 74.5t-175 -74.5t-120 -210 t-43 -309.5z" />
<glyph unicode="1" horiz-adv-x="847" d="M82 918l410 479h139v-1397h-139v1167l-332 -327z" />
<glyph unicode="2" horiz-adv-x="1021" d="M51 1188q82 113 202 176t249 63q182 0 290.5 -97t108.5 -261q0 -172 -98 -307t-271 -281q-43 -37 -40 -35q-127 -104 -188.5 -171.5t-61.5 -135.5h678v-139h-840v88q0 90 42 167t103.5 137.5t167.5 148.5q66 53 70 57q133 113 206.5 221.5t73.5 249.5q0 98 -66.5 158.5 t-174.5 60.5q-100 0 -183 -50t-155 -146z" />
<glyph unicode="3" horiz-adv-x="1087" d="M102 254l123 72q49 -104 126 -165t179 -61q121 0 202 80t81 203q0 127 -82 209t-209 82h-98v127h90q113 0 180.5 72.5t67.5 187.5q0 104 -64.5 170.5t-165.5 66.5q-106 0 -179.5 -58t-127.5 -167l-112 62q59 135 167.5 213.5t251.5 78.5q109 0 195 -47t134 -130t48 -189 q0 -111 -52 -196t-144 -122q112 -34 182 -132.5t70 -227.5q0 -119 -58.5 -214t-160 -148.5t-222.5 -53.5q-152 0 -260 78t-162 209z" />
<glyph unicode="4" horiz-adv-x="1175" d="M61 311v140l701 946h139v-946h178v-140h-178v-311h-139v311h-701zM209 451h553v729z" />
<glyph unicode="5" d="M115 152l108 75q51 -63 142.5 -98t201.5 -35q147 0 230.5 91t83.5 255q-2 160 -82 249t-224 89q-90 0 -190 -29.5t-188 -82.5v731h749v-144h-610v-393q129 45 252 45q203 0 316.5 -123t113.5 -342q0 -223 -120 -348t-335 -125q-139 0 -258 48t-190 137z" />
<glyph unicode="6" horiz-adv-x="1128" d="M86 522q0 299 101.5 503t276.5 303t396 99v-131q-250 0 -411.5 -131t-206.5 -372q43 76 131 116.5t176 40.5q131 0 237.5 -63.5t168 -175t61.5 -252.5t-60.5 -253t-166 -175.5t-236.5 -63.5t-238.5 71t-168 197.5t-60.5 286.5zM225 481q0 -111 43 -199.5t117 -138 t164 -49.5q92 0 167 47t118 130t43 188q0 104 -43 187t-118 130t-167 47q-150 0 -237 -97t-87 -245z" />
<glyph unicode="7" horiz-adv-x="956" d="M92 1253v144h844l-500 -1397h-141l450 1253h-653z" />
<glyph unicode="8" horiz-adv-x="1134" d="M92 397q0 141 73 233.5t210 133.5q-223 80 -223 299q0 113 56 194.5t151.5 125.5t207.5 44q115 0 210 -44t150.5 -126.5t55.5 -193.5q0 -219 -221 -299q139 -47 209.5 -136t70.5 -231q0 -125 -61 -223t-170 -152.5t-242 -54.5t-241.5 53.5t-172 151.5t-63.5 225zM240 401 q0 -143 87 -220t238 -77q154 0 241 77t87 218q0 143 -86 219t-240 76q-152 0 -239.5 -75.5t-87.5 -217.5zM301 1063q0 -117 74 -174.5t194 -57.5q125 0 193.5 57.5t68.5 172.5q0 117 -70.5 173t-193.5 56t-194.5 -57t-71.5 -170z" />
<glyph unicode="9" d="M94 936q0 141 60.5 252.5t166 175t236.5 63.5t238.5 -70.5t168 -197.5t60.5 -287q0 -299 -101.5 -502.5t-276.5 -303t-396 -99.5v131q250 0 411.5 131t206.5 373q-43 -76 -131 -117t-176 -41q-131 0 -237.5 63.5t-168 175.5t-61.5 253zM233 936q0 -104 43 -187 t118 -130.5t167 -47.5q150 0 237 97.5t87 244.5q0 111 -43 200t-117 138t-164 49q-92 0 -167 -47t-118 -130t-43 -187z" />
<glyph unicode=":" horiz-adv-x="450" d="M115 96q0 45 32.5 78t77.5 33q47 0 79 -33t32 -80q0 -45 -32 -77.5t-79 -32.5q-45 0 -77.5 32.5t-32.5 79.5zM115 856q0 45 32.5 78t77.5 33q47 0 79 -33t32 -78t-32 -79t-79 -34q-45 0 -77.5 34t-32.5 79z" />
<glyph unicode=";" horiz-adv-x="450" d="M112 96q0 51 31 81t80 30q51 0 84 -38t33 -95q0 -100 -57.5 -193.5t-147.5 -140.5l-21 39q115 76 115 205q-49 0 -83 31.5t-34 80.5zM115 858q0 45 32.5 78t77.5 33q47 0 79 -33t32 -80q0 -45 -32 -77.5t-79 -32.5q-45 0 -77.5 32.5t-32.5 79.5z" />
<glyph unicode="&#x3c;" horiz-adv-x="1024" d="M51 584l735 411l54 -98l-582 -311l582 -318l-54 -96z" />
<glyph unicode="=" horiz-adv-x="1024" d="M102 442v113h820v-113h-820zM102 709v112h820v-112h-820z" />
<glyph unicode="&#x3e;" horiz-adv-x="1024" d="M184 268l582 318l-582 311l54 98l735 -411l-735 -412z" />
<glyph unicode="?" horiz-adv-x="944" d="M59 1145q47 125 152.5 203.5t253.5 78.5q104 0 196.5 -53t147.5 -144t55 -198q0 -131 -47 -203.5t-135 -140.5q-66 -51 -99.5 -83t-58 -87t-24.5 -137h-121q0 111 25.5 180.5t69.5 113.5t132 107q66 47 92.5 104.5t26.5 131.5q0 131 -72.5 206.5t-191.5 75.5 q-106 0 -176 -52t-97 -144zM317 94q0 45 34 79t77 34q45 0 79 -34t34 -79q0 -43 -35 -76.5t-78 -33.5t-77 32.5t-34 77.5z" />
<glyph unicode="@" horiz-adv-x="1519" d="M70 592q0 238 96 428t262 296.5t365 106.5q202 0 350.5 -101t228.5 -283.5t80 -417.5q0 -145 -37 -261t-103.5 -180.5t-150.5 -64.5q-74 0 -124 45t-70 133q-33 -90 -88.5 -135t-122.5 -45q-94 0 -170 58t-118 161.5t-42 236.5q0 129 42 230.5t115.5 159t168.5 57.5 q133 0 198 -133v98h127v-619q0 -55 22.5 -81.5t61.5 -26.5q68 0 111 105.5t43 269.5q0 197 -62.5 347t-180.5 235t-279 85q-158 0 -292 -90t-213 -248.5t-79 -359.5q0 -223 79 -398t219 -273.5t318 -98.5q51 0 127 15.5t144 37.5l55 -119q-76 -27 -167 -44t-159 -17 q-219 0 -391 113.5t-268 316.5t-96 461zM551 563q0 -143 56.5 -234t144.5 -91q98 0 148 88t50 237q0 143 -55 234.5t-143 91.5t-144.5 -91t-56.5 -235z" />
<glyph unicode="A" horiz-adv-x="1198" d="M25 0l495 1397h144l510 -1397h-144l-143 391h-580l-129 -391h-153zM354 518h486l-250 678z" />
<glyph unicode="B" horiz-adv-x="1175" d="M162 0v1397h461q186 0 292.5 -97.5t106.5 -259.5q0 -104 -47 -179t-135 -109q121 -31 186.5 -119t65.5 -232q0 -186 -113 -293.5t-309 -107.5h-508zM315 127h334q131 0 206 73.5t75 200.5t-75 200t-206 73h-334v-547zM315 801h326q219 0 219 239q0 109 -63.5 168.5 t-175.5 59.5h-306v-467z" />
<glyph unicode="C" horiz-adv-x="1239" d="M113 694q0 229 66.5 394t190.5 252t294 87q174 0 297.5 -76.5t193.5 -215.5l-123 -72q-66 121 -153.5 173t-214.5 52q-182 0 -286 -156.5t-104 -435.5q0 -182 47.5 -315t135.5 -204t205 -71q145 0 226 65t150 202l129 -78q-74 -160 -195.5 -244t-289.5 -84 q-176 0 -304 87t-196.5 250t-68.5 390z" />
<glyph unicode="D" horiz-adv-x="1312" d="M164 0v1397h346q215 0 370.5 -83t237.5 -241t82 -377q0 -328 -182 -512t-508 -184h-346zM317 139h189q250 0 391 137.5t141 419.5q0 285 -141 422t-391 137h-189v-1116z" />
<glyph unicode="E" horiz-adv-x="1030" d="M162 0v1397h782v-129h-629v-488h492v-125h-492v-528h635v-127h-788z" />
<glyph unicode="F" horiz-adv-x="923" d="M162 0v1397h762v-129h-609v-488h451v-125h-451v-655h-153z" />
<glyph unicode="G" horiz-adv-x="1241" d="M59 694q0 229 69 394t197 252t304 87q162 0 279.5 -72.5t201.5 -213.5l-121 -86q-129 233 -360 233q-193 0 -300.5 -156.5t-107.5 -435.5q0 -276 108.5 -433t299.5 -157q106 0 191 51.5t134.5 152t49.5 245.5h-330v127h481v-127q0 -190 -67.5 -322.5t-187.5 -199 t-271 -66.5q-176 0 -304 87t-197 250t-69 390z" />
<glyph unicode="H" horiz-adv-x="1372" d="M164 0v1397h153v-604h738v604h153v-1397h-153v666h-738v-666h-153z" />
<glyph unicode="I" horiz-adv-x="649" d="M113 0v135h135v1127h-135v135h424v-135h-136v-1127h136v-135h-424z" />
<glyph unicode="J" horiz-adv-x="1015" d="M25 260l129 62q31 -98 107.5 -154.5t170.5 -56.5q131 0 198.5 80.5t67.5 228.5v977h154v-977q0 -213 -110.5 -333t-301.5 -120q-143 0 -250.5 77t-164.5 216z" />
<glyph unicode="K" horiz-adv-x="1116" d="M162 0v1397h153v-707l590 707h170l-522 -619l563 -778h-174l-479 672l-148 -174v-498h-153z" />
<glyph unicode="L" horiz-adv-x="974" d="M162 0v1397h153v-1270h629v-127h-782z" />
<glyph unicode="M" horiz-adv-x="1689" d="M164 0v1397h188l490 -1225l512 1225h172v-1397h-152v1116l-467 -1116h-143l-447 1112v-1112h-153z" />
<glyph unicode="N" horiz-adv-x="1355" d="M164 0v1397h164l710 -1166v1166h154v-1397h-164l-711 1161v-1161h-153z" />
<glyph unicode="O" horiz-adv-x="1425" d="M113 696q0 211 76.5 378t213 260t310.5 93t310 -93t213 -260t77 -380q0 -211 -77 -375.5t-213 -258t-310 -93.5t-310.5 93.5t-213 259t-76.5 376.5zM268 696q0 -170 57.5 -304t159 -208.5t228.5 -74.5t228 74.5t158.5 208.5t57.5 304t-57.5 305.5t-158.5 211t-228 75.5 t-228.5 -75.5t-159 -211t-57.5 -305.5z" />
<glyph unicode="P" horiz-adv-x="1095" d="M164 0v1397h467q188 0 300.5 -115t112.5 -317q0 -201 -117.5 -315.5t-312.5 -114.5h-297v-535h-153zM317 662h293q137 0 209 76.5t72 226.5t-71.5 227.5t-209.5 77.5h-293v-608z" />
<glyph unicode="Q" horiz-adv-x="1372" d="M113 696q0 211 76.5 378t213 260t310.5 93t310 -93t213 -260t77 -380q0 -166 -49.5 -306t-139.5 -241l121 -118l-90 -88l-125 125q-139 -98 -317 -99q-174 0 -310.5 93.5t-213 259t-76.5 376.5zM268 696q0 -170 57.5 -304t159 -208.5t228.5 -74.5q113 0 209 61l-172 172 l90 90l178 -176q66 80 102.5 193.5t36.5 246.5q0 170 -57.5 305.5t-158.5 211t-228 75.5t-228.5 -75.5t-159 -211t-57.5 -305.5z" />
<glyph unicode="R" horiz-adv-x="1187" d="M162 0v1397h467q127 0 223 -49.5t147.5 -138.5t51.5 -203q0 -139 -84 -238.5t-224 -134.5l365 -633h-162l-354 616h-277v-616h-153zM315 743h293q135 0 208 72t73 191t-73 191.5t-208 72.5h-293v-527z" />
<glyph unicode="S" horiz-adv-x="1193" d="M88 252l125 110q74 -117 188.5 -185t247.5 -68q145 0 221 64.5t76 174.5q0 121 -81 185.5t-257 113.5q-442 109 -442 402q0 182 118.5 280t329.5 98q154 0 276 -57t218 -176l-121 -102q-74 100 -162 148t-211 48q-129 0 -210.5 -60.5t-81.5 -164.5q0 -106 75.5 -169 t255.5 -106q213 -57 331 -157.5t118 -282.5q0 -113 -57.5 -199t-165 -134t-250.5 -48q-154 0 -299.5 77t-241.5 208z" />
<glyph unicode="T" horiz-adv-x="1093" d="M31 1270v127h1032v-127h-440v-1270h-152v1270h-440z" />
<glyph unicode="U" horiz-adv-x="1351" d="M164 518v879h153v-879q0 -412 363 -412q164 0 259 106.5t95 305.5v879h154v-879q0 -266 -134 -408.5t-374 -142.5q-258 0 -387 140.5t-129 410.5z" />
<glyph unicode="V" horiz-adv-x="1136" d="M0 1397h154l413 -1227l420 1227h150l-488 -1397h-164z" />
<glyph unicode="W" horiz-adv-x="1742" d="M45 1397h158l299 -1176l311 1176h125l313 -1186l301 1186h146l-373 -1397h-160l-291 1122l-299 -1122h-157z" />
<glyph unicode="X" horiz-adv-x="1056" d="M10 1397h166l348 -596l357 596h159l-419 -692l426 -705h-173l-352 582l-329 -582h-173l404 690z" />
<glyph unicode="Y" horiz-adv-x="991" d="M-31 1397h154l381 -697l377 697h141l-453 -826v-571h-151v578z" />
<glyph unicode="Z" horiz-adv-x="1030" d="M78 0v129l741 1141h-721v127h873v-154l-729 -1116h708v-127h-872z" />
<glyph unicode="[" horiz-adv-x="530" d="M137 -80v1557h352v-80h-198v-1397h198v-80h-352z" />
<glyph unicode="\" horiz-adv-x="772" d="M68 1397h127l507 -1397h-127z" />
<glyph unicode="]" horiz-adv-x="530" d="M41 0h201v1397h-201v80h352v-1557h-352v80z" />
<glyph unicode="^" horiz-adv-x="1024" d="M72 756l442 587l440 -587l-90 -74l-352 463l-354 -463z" />
<glyph unicode="_" horiz-adv-x="937" d="M0 -55h938v-121h-938v121z" />
<glyph unicode="`" horiz-adv-x="794" d="M121 1401l69 119l443 -289l-41 -70z" />
<glyph unicode="a" d="M70 481q0 147 60 263t168 181.5t245 65.5q104 0 191 -46t147 -130v143h139v-958h-139v141q-59 -82 -145.5 -128t-188.5 -46q-137 0 -245.5 65.5t-170 182.5t-61.5 266zM209 481q0 -113 43 -200.5t118.5 -137t172.5 -49.5q98 0 175 49.5t120 137.5t43 198q0 111 -43 199 t-120 137t-175 49q-96 0 -172 -49t-119 -136t-43 -198z" />
<glyph unicode="b" d="M131 0v1487h139v-672q59 84 146.5 130t191.5 46q137 0 245 -65.5t168 -181t60 -263.5q0 -150 -61.5 -266.5t-170 -182t-245.5 -65.5q-102 0 -188 46t-146 128v-141h-139zM270 479q0 -111 43 -198.5t120 -137t175 -49.5q97 0 172.5 49.5t118.5 137.5t43 200q0 111 -43 198 t-118.5 136t-172.5 49q-98 0 -175 -49t-120 -137t-43 -199z" />
<glyph unicode="c" horiz-adv-x="976" d="M66 479q0 147 60 264t168.5 182.5t246.5 65.5q117 0 203.5 -50t158.5 -142l-102 -80q-100 145 -260 145q-96 0 -173 -49t-120 -137t-43 -199t43 -198.5t119.5 -137t173.5 -49.5q98 0 161.5 34t114.5 99l109 -75q-68 -84 -167.5 -134.5t-213.5 -50.5q-139 0 -248 65.5 t-170 182.5t-61 264z" />
<glyph unicode="d" d="M70 481q0 147 60 263t168 181.5t245 65.5q104 0 191 -46t147 -130v672h139v-1487h-139v141q-59 -82 -145.5 -128t-188.5 -46q-137 0 -245.5 65.5t-170 182.5t-61.5 266zM209 481q0 -113 43 -200.5t118.5 -137t172.5 -49.5q98 0 175 49.5t120 137.5t43 198q0 111 -43 199 t-120 137t-175 49q-96 0 -172 -49t-119 -136t-43 -198z" />
<glyph unicode="e" horiz-adv-x="1075" d="M70 479q0 147 60 264t168 182.5t245 65.5q129 0 233.5 -63.5t163.5 -173t59 -244.5q0 -39 -2 -59h-788q8 -147 96 -252t240 -105q123 0 203.5 46t130.5 128l110 -73q-68 -106 -178.5 -167t-261.5 -61q-139 0 -247.5 65.5t-170 182.5t-61.5 264zM217 565h643 q-20 150 -100 224.5t-217 74.5q-133 0 -218 -85t-108 -214z" />
<glyph unicode="f" horiz-adv-x="563" d="M57 831v127h123v261q0 133 85 218t218 85h58v-127h-58q-71 0 -117.5 -49.5t-46.5 -126.5v-261h222v-127h-222v-831h-139v831h-123z" />
<glyph unicode="g" d="M70 481q0 147 60 263t168 181.5t245 65.5q104 0 191 -46t147 -130v143h139v-921q0 -129 -53.5 -230.5t-149.5 -159t-219 -57.5h-397v127h397q125 0 204 90.5t79 229.5v104q-59 -82 -145.5 -128t-188.5 -46q-137 0 -245.5 65.5t-170 182.5t-61.5 266zM209 481 q0 -113 43 -200.5t118.5 -137t172.5 -49.5q98 0 175 49.5t120 137.5t43 198q0 111 -43 199t-120 137t-175 49q-96 0 -172 -49t-119 -136t-43 -198z" />
<glyph unicode="h" horiz-adv-x="1093" d="M129 0v1487h139v-688q49 92 130 142t188 50q100 0 185 -41t135 -120.5t50 -188.5v-641h-139v580q0 284 -252 284h-2q-147 0 -221 -104.5t-74 -280.5v-479h-139z" />
<glyph unicode="i" horiz-adv-x="548" d="M163 1257q0 45 32 77t79 32q45 0 78 -31.5t33 -79.5q0 -45 -33 -77.5t-78 -32.5q-47 0 -79 32.5t-32 79.5zM205 0v958h139v-958h-139z" />
<glyph unicode="j" horiz-adv-x="395" d="M-92 -283h57q72 0 118 49.5t46 127.5v1064h139v-1064q0 -133 -85 -218.5t-218 -85.5h-57v127zM88 1257q0 45 32 77t79 32q45 0 78 -31.5t33 -79.5q0 -45 -33 -77.5t-78 -32.5q-47 0 -79 32.5t-32 79.5z" />
<glyph unicode="k" horiz-adv-x="892" d="M129 0v1487h139v-930l420 401h180l-387 -372l396 -586h-156l-336 494l-117 -113v-381h-139z" />
<glyph unicode="l" horiz-adv-x="415" d="M139 0v1487h140v-1487h-140z" />
<glyph unicode="m" horiz-adv-x="1576" d="M129 0v958h139v-149q47 88 120 135t167 47q104 0 182 -56t109 -161q45 102 123 159.5t180 57.5q133 0 221 -93t88 -257v-641h-139v580q0 152 -57.5 218t-149.5 66q-113 0 -175.5 -87t-72.5 -236v-541h-139v580q0 152 -57.5 218t-149.5 66q-125 0 -187.5 -104.5 t-62.5 -280.5v-479h-139z" />
<glyph unicode="n" horiz-adv-x="1099" d="M129 0v958h139v-159q49 92 130 142t188 50q100 0 185 -41t135 -120.5t50 -188.5v-641h-139v580q0 284 -252 284h-2q-147 0 -221 -104.5t-74 -280.5v-479h-139z" />
<glyph unicode="o" horiz-adv-x="1087" d="M70 481q0 147 60 263t168 181.5t245 65.5t245.5 -65.5t170 -182t61.5 -264.5q0 -147 -60.5 -264t-168 -182.5t-244.5 -65.5t-245.5 65.5t-170 183.5t-61.5 265zM209 481q0 -113 43 -200.5t118.5 -137t172.5 -49.5q98 0 175 49.5t120 137.5t43 198q0 111 -43 199t-120 137 t-175 49q-96 0 -172 -49t-119 -136t-43 -198z" />
<glyph unicode="p" d="M131 -410v1368h139v-141q59 82 145.5 128t188.5 46q137 0 245.5 -65.5t170 -182t61.5 -266.5q0 -147 -60 -263t-168 -181.5t-245 -65.5q-104 0 -191 46t-147 130v-553h-139zM270 479q0 -111 43 -198.5t120 -137t175 -49.5q97 0 172.5 49.5t118.5 136.5t43 197 q0 113 -43 201t-118.5 137t-172.5 49q-98 0 -175 -49t-120 -137t-43 -199z" />
<glyph unicode="q" d="M72 477q0 150 61.5 266.5t170 182t245.5 65.5q102 0 188 -46t146 -128v141h139v-1368h-139v553q-59 -84 -146.5 -130t-191.5 -46q-137 0 -244.5 65.5t-168 181.5t-60.5 263zM211 477q0 -111 43 -197.5t119 -136t172 -49.5q98 0 175 49.5t120 137.5t43 198q0 111 -43 199 t-120 137t-175 49q-96 0 -172 -49t-119 -137t-43 -201z" />
<glyph unicode="r" horiz-adv-x="694" d="M129 0v958h139v-192q55 106 140.5 165.5t191.5 59.5q49 0 94 -14v-127q-43 20 -94 20q-88 0 -164 -49t-122 -142t-46 -220v-459h-139z" />
<glyph unicode="s" horiz-adv-x="950" d="M61 195l125 61q76 -162 297 -162q106 0 176 39t70 121q0 84 -56.5 125t-197.5 53q-197 16 -281.5 88t-84.5 191q0 133 96 206.5t264 73.5q285 0 387 -225l-125 -61q-35 82 -101.5 120.5t-170.5 38.5q-106 0 -162.5 -39t-56.5 -110q0 -68 60 -110t208 -54q182 -16 271 -89 t89 -192q0 -96 -55 -164.5t-147.5 -103.5t-198.5 -35q-139 0 -244.5 59.5t-161.5 168.5z" />
<glyph unicode="t" horiz-adv-x="563" d="M16 831v127h164v318h139v-318h222v-127h-222v-831h-139v831h-164z" />
<glyph unicode="u" horiz-adv-x="1099" d="M143 317v641h140v-579q0 -285 254 -285q147 0 220.5 104.5t73.5 280.5v479h140v-958h-140v160q-49 -92 -129.5 -142.5t-187.5 -50.5q-100 0 -185 41t-135.5 121t-50.5 188z" />
<glyph unicode="v" horiz-adv-x="931" d="M43 958h145l283 -808l279 808h141l-348 -958h-154z" />
<glyph unicode="w" horiz-adv-x="1472" d="M33 958h147l246 -761l250 761h135l242 -757l243 757h134l-312 -958h-145l-234 735l-252 -735h-139z" />
<glyph unicode="x" horiz-adv-x="946" d="M66 0l307 492l-289 466h158l231 -376l244 376h153l-301 -464l312 -494h-160l-250 399l-250 -399h-155z" />
<glyph unicode="y" horiz-adv-x="919" d="M20 958h146l317 -794l305 794h132l-519 -1368h-139l152 392z" />
<glyph unicode="z" horiz-adv-x="860" d="M76 0v127l549 704h-549v127h708v-127l-548 -704h548v-127h-708z" />
<glyph unicode="{" horiz-adv-x="505" d="M14 645v94q59 10 113.5 62.5t54.5 105.5q0 57 -14 154q-2 18 -8 71.5t-6 94.5q0 119 75.5 190.5t204.5 71.5v-94q-68 0 -114 -40t-46 -106q0 -45 2.5 -84t4.5 -69q8 -123 8 -187q0 -141 -142 -217q139 -78 140 -217q0 -51 -8 -182q-2 -35 -4.5 -76t-2.5 -82 q0 -72 47.5 -108.5t116.5 -36.5v-94q-131 0 -206.5 72.5t-75.5 189.5q0 51 8 170q2 35 4 72.5t2 76.5q0 49 -49 104.5t-105 63.5z" />
<glyph unicode="|" horiz-adv-x="354" d="M135 -283v1819h105v-1819h-105z" />
<glyph unicode="}" horiz-adv-x="505" d="M55 -10q70 0 117 36.5t47 108.5q0 41 -2 82t-4 76q-8 131 -8 182q0 139 139 217q-141 76 -141 217q0 63 8 187q2 31 4 69.5t2 83.5q0 66 -46 106t-114 40v94q129 0 205 -71.5t76 -190.5q0 -41 -6 -94.5t-8 -71.5q-14 -96 -15 -154q0 -53 54.5 -105t113.5 -63v-94 q-55 -8 -104 -63.5t-49 -104.5q0 -39 2 -77t4 -72q8 -119 8 -170q0 -117 -76 -189.5t-207 -72.5v94z" />
<glyph unicode="~" horiz-adv-x="1024" d="M102 651q92 109 232 109q59 0 101 -16.5t100 -47.5q51 -29 84.5 -43t80.5 -14q88 0 168 66l54 -68q-43 -53 -104.5 -82t-127.5 -29q-51 0 -90 15.5t-98 46.5t-97 45t-86 14q-51 0 -91 -18.5t-78 -53.5z" />
<glyph unicode="&#xa1;" horiz-adv-x="471" d="M127 1083q0 47 33 80t78 33q47 0 78.5 -33t31.5 -78q0 -47 -31.5 -79.5t-78.5 -32.5q-45 0 -78 32.5t-33 77.5zM166 -217v1016h139v-1016h-139z" />
<glyph unicode="&#xa2;" horiz-adv-x="976" d="M66 684q0 139 54 251t150.5 179.5t221.5 79.5v137h83v-137q104 -8 182.5 -56t145.5 -134l-102 -80q-88 129 -226 143v-766q84 6 140.5 39t101.5 92l109 -76q-62 -77 -153 -126.5t-198 -57.5v-188h-83v190q-125 12 -221.5 81t-150.5 179.5t-54 249.5zM205 684 q0 -154 78.5 -258t208.5 -123v762q-129 -18 -208 -122.5t-79 -258.5z" />
<glyph unicode="&#xa3;" horiz-adv-x="962" d="M109 0v127q127 123 183 223.5t56 190.5q0 57 -20 110h-205v99h160q-4 8 -54 77q-55 72 -84.5 133.5t-29.5 145.5q0 102 58 175t153.5 109.5t199.5 36.5q111 0 202 -38.5t143.5 -107.5t52.5 -153h-162q0 76 -65.5 118t-170.5 42q-106 0 -179 -44t-73 -126q0 -49 19.5 -90 t62.5 -108q37 -55 68 -107l33 -63h305v-99h-275q8 -35 9 -80q0 -110 -60.5 -217.5t-173.5 -226.5h629v-127h-782z" />
<glyph unicode="&#xa4;" horiz-adv-x="999" d="M92 272l109 109q-76 100 -76 225t76 225l-109 109l74 74l108 -109q102 78 226 78q125 0 227 -78l107 109l73 -74l-108 -106q75 -101 75 -226t-77 -225l110 -111l-73 -73l-111 110q-102 -78 -225 -78t-224 76l-108 -108zM248 606q0 -49 18.5 -95t55.5 -83q74 -74 176 -74 q47 0 94 19.5t86 56.5q37 37 55.5 83t18.5 95q0 88 -56 156l-39 39q-68 55 -157 55q-49 0 -95.5 -18.5t-82.5 -55.5q-74 -74 -74 -178z" />
<glyph unicode="&#xa5;" horiz-adv-x="991" d="M-31 1397h154l381 -697l377 697h141l-432 -789h172v-98h-193v-107h193v-98h-193v-305h-151v305h-193v98h193v107h-193v98h176z" />
<glyph unicode="&#xa6;" horiz-adv-x="366" d="M141 -139v739h84v-739h-84zM141 797v739h84v-739h-84z" />
<glyph unicode="&#xa7;" horiz-adv-x="897" d="M92 143l107 66q63 -113 243 -113q84 0 132.5 35t48.5 107q0 74 -47.5 114.5t-155.5 73.5q-158 45 -225.5 118.5t-67.5 172.5q0 66 35 123t100 84q-90 78 -90 196q0 117 84 193t213 76q182 0 297 -156l-96 -78q-39 53 -85 80t-110 27q-74 0 -118 -35t-44 -105 q0 -133 191 -186q166 -45 238.5 -113.5t72.5 -185.5q0 -66 -30.5 -116t-96.5 -95q74 -80 74 -188q0 -113 -83 -191t-218 -78q-109 0 -207 42t-162 132zM246 741q0 -71 50 -117t157 -73q84 -20 151 -59q45 33 61.5 64.5t16.5 78.5q0 68 -48 108.5t-167 75.5q-68 18 -133 53 q-88 -45 -88 -131z" />
<glyph unicode="&#xa8;" horiz-adv-x="950" d="M164 1257q0 45 32.5 77t77.5 32q47 0 80 -31.5t33 -79.5q0 -45 -32.5 -77.5t-80.5 -32.5q-45 0 -77.5 32.5t-32.5 79.5zM563 1257q0 45 32 77t77 32q47 0 80.5 -31.5t33.5 -79.5q0 -45 -33.5 -77.5t-80.5 -32.5q-45 0 -77 32.5t-32 79.5z" />
<glyph unicode="&#xa9;" horiz-adv-x="1437" d="M92 586q0 174 85 318.5t229.5 227t312.5 82.5q174 0 318.5 -86t227.5 -230t83 -312q0 -176 -85 -319.5t-229.5 -226.5t-314.5 -83q-176 0 -319.5 85t-225.5 229.5t-82 314.5zM186 586q0 -150 72 -271.5t193.5 -191.5t267.5 -70q149 0 271 73t191.5 194.5t69.5 265.5 q0 147 -71.5 270t-194.5 192.5t-266 69.5q-152 0 -273.5 -71.5t-190.5 -193.5t-69 -267zM401 580q0 100 42 180t116 125t168 45q68 0 139.5 -39t116.5 -100l-92 -60q-31 41 -77 67.5t-87 26.5q-94 0 -153.5 -68.5t-59.5 -176.5q0 -109 59.5 -178.5t153.5 -69.5 q51 0 102.5 26.5t79.5 67.5l88 -61q-45 -59 -119.5 -97.5t-148.5 -38.5q-143 0 -235.5 98.5t-92.5 252.5z" />
<glyph unicode="&#xaa;" horiz-adv-x="835" d="M123 584v104h590v-104h-590zM123 1110q0 137 83 226t212 89q57 0 106 -25.5t84 -72.5v80h105v-596h-105v82q-35 -47 -84 -73.5t-106 -26.5q-129 0 -212 89t-83 228zM225 1108q0 -96 54.5 -157.5t138.5 -61.5t137 62.5t53 160.5q0 96 -54 156.5t-140 60.5 q-82 0 -135.5 -62.5t-53.5 -158.5z" />
<glyph unicode="&#xab;" horiz-adv-x="1032" d="M82 549l391 383l88 -78l-291 -303l291 -307l-88 -76zM430 549l391 383l88 -78l-291 -303l291 -307l-88 -76z" />
<glyph unicode="&#xac;" horiz-adv-x="1024" d="M102 580v112h820v-364h-140v252h-680z" />
<glyph unicode="&#xad;" horiz-adv-x="679" d="M117 446v115h465v-115h-465z" />
<glyph unicode="&#xae;" horiz-adv-x="1437" d="M92 586q0 174 85 318.5t229.5 227t312.5 82.5q174 0 318.5 -86t227.5 -230t83 -312q0 -176 -85 -319.5t-229.5 -226.5t-314.5 -83q-176 0 -319.5 85t-225.5 229.5t-82 314.5zM186 586q0 -150 72 -271.5t193.5 -191.5t267.5 -70q149 0 271 73t191.5 194.5t69.5 265.5 q0 147 -71.5 270t-194.5 192.5t-266 69.5q-152 0 -273.5 -71.5t-190.5 -193.5t-69 -267zM483 240v680h265q102 0 162.5 -52.5t60.5 -150.5q0 -72 -34 -121t-93 -70l170 -286l-127 -2l-166 274h-125v-272h-113zM596 616h154q53 0 77.5 28t24.5 73t-25.5 72.5t-76.5 27.5h-154 v-201z" />
<glyph unicode="&#xaf;" horiz-adv-x="829" d="M121 1200v92h547v-92h-547z" />
<glyph unicode="&#xb0;" horiz-adv-x="755" d="M102 1151q0 121 77 198.5t198 77.5t198.5 -77.5t77.5 -200.5q0 -119 -77.5 -194.5t-198.5 -75.5t-198 76.5t-77 195.5zM213 1151q0 -72 46 -118t118 -46t118 46t46 118q0 74 -46 121t-118 47t-118 -47t-46 -121z" />
<glyph unicode="&#xb1;" horiz-adv-x="1024" d="M102 238v112h820v-112h-820zM102 709v112h349v287h122v-287h349v-112h-349v-267h-122v267h-349z" />
<glyph unicode="&#xb2;" horiz-adv-x="710" d="M72 1251q61 86 129.5 123t167.5 37q109 0 178 -65.5t69 -178.5q0 -68 -26.5 -121t-66.5 -92t-111 -100q-174 -135 -191 -215h408v-111h-533v66q0 88 52.5 152.5t156.5 152.5l37 31q76 66 116 121t40 118q0 68 -33 102t-107 34q-53 0 -107 -34t-97 -95z" />
<glyph unicode="&#xb3;" horiz-adv-x="696" d="M55 709l92 55q27 -72 75 -103.5t126 -31.5q63 0 107.5 42t44.5 107q0 70 -44 113t-116 43h-76v108h72q61 0 100 38t39 100q0 55 -37 90t-92 35q-66 0 -113 -34t-79 -104l-93 52q43 94 117 143t168 49q109 0 175.5 -62.5t66.5 -168.5q0 -66 -40 -116t-110 -75 q82 -22 129 -77.5t47 -133.5q0 -117 -76.5 -188.5t-199.5 -71.5q-100 0 -175 48t-108 143z" />
<glyph unicode="&#xb4;" horiz-adv-x="794" d="M119 1231l442 289l70 -119l-471 -240z" />
<glyph unicode="&#xb5;" horiz-adv-x="1179" d="M131 -410v1368h139v-565q0 -145 53.5 -222t198.5 -77q139 0 208 117t69 268v479h139v-632q0 -131 23.5 -182.5t80.5 -51.5q20 0 46 5t38 12l21 -101q-20 -20 -59 -30.5t-78 -10.5q-80 0 -129.5 49.5t-61.5 147.5q-47 -100 -118.5 -148.5t-176.5 -48.5q-90 0 -150.5 28 t-103.5 85v-490h-139z" />
<glyph unicode="&#xb6;" horiz-adv-x="1087" d="M66 985q0 119 62 213t174 146.5t255 52.5h387v-1397h-153v1268h-136v-1268h-153v578q-127 0 -226.5 52t-154.5 144t-55 211zM233 985q0 -121 75 -198.5t194 -77.5v555q-119 0 -194 -78t-75 -201z" />
<glyph unicode="&#xb7;" horiz-adv-x="450" d="M115 520q0 45 32.5 78t77.5 33q47 0 79 -33t32 -80q0 -45 -32 -77.5t-79 -32.5q-45 0 -77.5 32.5t-32.5 79.5z" />
<glyph unicode="&#xb8;" horiz-adv-x="706" d="M119 -354q100 0 192 24q94 20 95 62q0 23 -16.5 34t-63.5 17t-142 6l99 211h104l-68 -139q104 0 162 -35t58 -82q0 -154 -420 -154v56z" />
<glyph unicode="&#xb9;" horiz-adv-x="552" d="M61 1085l258 312h111v-869h-117v676l-188 -182z" />
<glyph unicode="&#xba;" horiz-adv-x="835" d="M123 584v104h590v-104h-590zM123 1110q0 137 83 226t212 89t212 -89t83 -226q0 -139 -83 -228t-212 -89t-212 89t-83 228zM225 1108q0 -96 54.5 -157.5t138.5 -61.5t137 62.5t53 160.5q0 96 -54 156.5t-140 60.5q-82 0 -135.5 -62.5t-53.5 -158.5z" />
<glyph unicode="&#xbb;" horiz-adv-x="1032" d="M123 244l291 307l-291 303l88 78l391 -383l-391 -381zM471 244l291 307l-291 303l88 78l391 -383l-391 -381z" />
<glyph unicode="&#xbc;" horiz-adv-x="1642" d="M61 1085l258 312h111v-869h-117v676l-188 -182zM451 0l508 1397h126l-507 -1397h-127zM922 166v97l405 602h111v-592h123v-107h-123v-166h-117v166h-399zM1047 273h274v397z" />
<glyph unicode="&#xbd;" horiz-adv-x="1630" d="M61 1085l258 312h111v-869h-117v676l-188 -182zM451 0l508 1397h126l-507 -1397h-127zM992 723q61 86 129.5 123t167.5 37q109 0 178 -65.5t69 -178.5q0 -68 -26.5 -121t-66.5 -92t-111 -100q-174 -135 -191 -215h408v-111h-533v66q0 88 52.5 152.5t156.5 152.5l37 31 q76 66 116 121t40 118q0 68 -33 102t-107 34q-53 0 -107 -34t-97 -95z" />
<glyph unicode="&#xbe;" horiz-adv-x="1724" d="M55 709l92 55q27 -72 75 -103.5t126 -31.5q63 0 107.5 42t44.5 107q0 70 -44 113t-116 43h-76v108h72q61 0 100 38t39 100q0 55 -37 90t-92 35q-66 0 -113 -34t-79 -104l-93 52q43 94 117 143t168 49q109 0 175.5 -62.5t66.5 -168.5q0 -66 -40 -116t-110 -75 q82 -22 129 -77.5t47 -133.5q0 -117 -76.5 -188.5t-199.5 -71.5q-100 0 -175 48t-108 143zM594 0l508 1397h126l-507 -1397h-127zM1004 166v97l405 602h111v-592h123v-107h-123v-166h-117v166h-399zM1129 273h274v397z" />
<glyph unicode="&#xbf;" horiz-adv-x="944" d="M80 180q0 131 47 204t135 140q66 51 99.5 83t58 87.5t24.5 136.5h121q0 -110 -25.5 -179.5t-69.5 -113.5t-132 -108q-66 -47 -92.5 -104.5t-26.5 -130.5q0 -131 73 -207t191 -76q106 0 176 52t97 145l129 -41q-47 -125 -152.5 -204t-253.5 -79q-104 0 -196.5 53 t-147.5 144.5t-55 197.5zM403 1118q0 43 35 77t78 34t77 -33t34 -78t-34 -78.5t-77 -33.5q-45 0 -79 33.5t-34 78.5z" />
<glyph unicode="&#xc0;" horiz-adv-x="1198" d="M25 0l495 1397h144l510 -1397h-144l-143 391h-580l-129 -391h-153zM344 1663l69 119l443 -228l-41 -69zM354 518h486l-250 678z" />
<glyph unicode="&#xc1;" horiz-adv-x="1198" d="M25 0l495 1397h144l510 -1397h-144l-143 391h-580l-129 -391h-153zM344 1554l442 228l70 -119l-471 -178zM354 518h486l-250 678z" />
<glyph unicode="&#xc2;" horiz-adv-x="1198" d="M25 0l495 1397h144l510 -1397h-144l-143 391h-580l-129 -391h-153zM281 1579l317 213l320 -213l-39 -70l-281 138l-278 -138zM354 518h486l-250 678z" />
<glyph unicode="&#xc3;" horiz-adv-x="1198" d="M25 0l495 1397h144l510 -1397h-144l-143 391h-580l-129 -391h-153zM248 1538q10 80 60.5 137.5t140.5 57.5q43 0 79 -12.5t87 -39.5q41 -20 73.5 -31.5t65.5 -11.5q43 0 70.5 21.5t31.5 52.5h95q-10 -84 -56.5 -139t-140.5 -55q-45 0 -79 12t-73 35q-6 4 -33.5 16 t-54 19.5t-55.5 7.5q-53 0 -80.5 -16.5t-38.5 -53.5h-92zM354 518h486l-250 678z" />
<glyph unicode="&#xc4;" horiz-adv-x="1198" d="M25 0l495 1397h144l510 -1397h-144l-143 391h-580l-129 -391h-153zM289 1667q0 45 31.5 77t79.5 32q45 0 78.5 -32t33.5 -79q0 -45 -33.5 -78t-78.5 -33q-48 0 -79.5 33t-31.5 80zM354 518h486l-250 678zM688 1667q0 45 33 77t80 32q45 0 78 -32t33 -79q0 -45 -33 -78 t-78 -33q-47 0 -80 33t-33 80z" />
<glyph unicode="&#xc5;" horiz-adv-x="1198" d="M25 0l495 1397h144l510 -1397h-144l-143 391h-580l-129 -391h-153zM354 518h486l-250 678zM396 1718q0 84 59 144.5t143 60.5t144.5 -60.5t60.5 -144.5t-60.5 -143t-144.5 -59t-143 59t-59 143zM498 1720q0 -43 29.5 -73.5t72.5 -30.5q41 0 71 30.5t30 71.5q0 43 -30 73 t-71 30q-43 0 -72.5 -30t-29.5 -71z" />
<glyph unicode="&#xc6;" horiz-adv-x="1683" d="M0 0l815 1393v4h782v-129h-630v-447h491v-125h-491v-569h637v-127h-789v406h-434l-238 -406h-143zM446 518h369v633z" />
<glyph unicode="&#xc7;" horiz-adv-x="1239" d="M113 694q0 229 66.5 394t190.5 252t294 87q174 0 297.5 -76.5t193.5 -215.5l-123 -72q-66 121 -153.5 173t-214.5 52q-182 0 -286 -156.5t-104 -435.5q0 -182 47.5 -315t135.5 -204t205 -71q145 0 226 65t150 202l129 -78q-141 -306 -442 -326l-53 -108q104 0 161.5 -35 t57.5 -82q0 -154 -420 -154v56q102 0 195 24q92 20 92 62q0 23 -16.5 34t-63.5 17t-141 6l84 180q-240 23 -374 213.5t-134 511.5z" />
<glyph unicode="&#xc8;" horiz-adv-x="1030" d="M162 0v1397h782v-129h-629v-488h492v-125h-492v-528h635v-127h-788zM322 1663l69 119l443 -228l-41 -69z" />
<glyph unicode="&#xc9;" horiz-adv-x="1030" d="M162 0v1397h782v-129h-629v-488h492v-125h-492v-528h635v-127h-788zM322 1554l442 228l70 -119l-471 -178z" />
<glyph unicode="&#xca;" horiz-adv-x="1030" d="M162 0v1397h782v-129h-629v-488h492v-125h-492v-528h635v-127h-788zM258 1579l317 213l320 -213l-39 -70l-281 138l-278 -138z" />
<glyph unicode="&#xcb;" horiz-adv-x="1030" d="M162 0v1397h782v-129h-629v-488h492v-125h-492v-528h635v-127h-788zM266 1667q0 45 31.5 77t79.5 32q45 0 78.5 -32t33.5 -79q0 -45 -33.5 -78t-78.5 -33q-48 0 -79.5 33t-31.5 80zM665 1667q0 45 33 77t80 32q45 0 78 -32t33 -79q0 -45 -33 -78t-78 -33q-47 0 -80 33 t-33 80z" />
<glyph unicode="&#xcc;" horiz-adv-x="649" d="M70 1663l69 119l443 -228l-41 -69zM113 0v135h135v1127h-135v135h424v-135h-136v-1127h136v-135h-424z" />
<glyph unicode="&#xcd;" horiz-adv-x="649" d="M70 1554l442 228l70 -119l-471 -178zM113 0v135h135v1127h-135v135h424v-135h-136v-1127h136v-135h-424z" />
<glyph unicode="&#xce;" horiz-adv-x="649" d="M7 1579l317 213l320 -213l-39 -70l-281 138l-278 -138zM113 0v135h135v1127h-135v135h424v-135h-136v-1127h136v-135h-424z" />
<glyph unicode="&#xcf;" horiz-adv-x="649" d="M14 1667q0 45 31.5 77t79.5 32q45 0 78.5 -32t33.5 -79q0 -45 -33.5 -78t-78.5 -33q-48 0 -79.5 33t-31.5 80zM113 0v135h135v1127h-135v135h424v-135h-136v-1127h136v-135h-424zM413 1667q0 45 33 77t80 32q45 0 78 -32t33 -79q0 -45 -33 -78t-78 -33q-47 0 -80 33 t-33 80z" />
<glyph unicode="&#xd0;" horiz-adv-x="1312" d="M20 649v99h144v649h346q215 0 370.5 -83t237.5 -241t82 -377q0 -328 -182 -512t-508 -184h-346v649h-144zM317 139h189q250 0 391 137.5t141 419.5q0 285 -141 422t-391 137h-189v-507h240v-99h-240v-510z" />
<glyph unicode="&#xd1;" horiz-adv-x="1355" d="M164 0v1397h164l710 -1166v1166h154v-1397h-164l-711 1161v-1161h-153zM295 1538q10 80 60.5 137.5t140.5 57.5q43 0 79 -12.5t87 -39.5q41 -20 73.5 -31.5t65.5 -11.5q43 0 70.5 21.5t31.5 52.5h95q-10 -84 -56.5 -139t-140.5 -55q-45 0 -79 12t-73 35q-6 4 -33.5 16 t-54 19.5t-55.5 7.5q-53 0 -80.5 -16.5t-38.5 -53.5h-92z" />
<glyph unicode="&#xd2;" horiz-adv-x="1425" d="M113 696q0 211 76.5 378t213 260t310.5 93t310 -93t213 -260t77 -380q0 -211 -77 -375.5t-213 -258t-310 -93.5t-310.5 93.5t-213 259t-76.5 376.5zM268 696q0 -170 57.5 -304t159 -208.5t228.5 -74.5t228 74.5t158.5 208.5t57.5 304t-57.5 305.5t-158.5 211t-228 75.5 t-228.5 -75.5t-159 -211t-57.5 -305.5zM457 1663l69 119l443 -228l-41 -69z" />
<glyph unicode="&#xd3;" horiz-adv-x="1425" d="M113 696q0 211 76.5 378t213 260t310.5 93t310 -93t213 -260t77 -380q0 -211 -77 -375.5t-213 -258t-310 -93.5t-310.5 93.5t-213 259t-76.5 376.5zM268 696q0 -170 57.5 -304t159 -208.5t228.5 -74.5t228 74.5t158.5 208.5t57.5 304t-57.5 305.5t-158.5 211t-228 75.5 t-228.5 -75.5t-159 -211t-57.5 -305.5zM457 1554l442 228l70 -119l-471 -178z" />
<glyph unicode="&#xd4;" horiz-adv-x="1425" d="M113 696q0 211 76.5 378t213 260t310.5 93t310 -93t213 -260t77 -380q0 -211 -77 -375.5t-213 -258t-310 -93.5t-310.5 93.5t-213 259t-76.5 376.5zM268 696q0 -170 57.5 -304t159 -208.5t228.5 -74.5t228 74.5t158.5 208.5t57.5 304t-57.5 305.5t-158.5 211t-228 75.5 t-228.5 -75.5t-159 -211t-57.5 -305.5zM394 1579l317 213l320 -213l-39 -70l-281 138l-278 -138z" />
<glyph unicode="&#xd5;" horiz-adv-x="1425" d="M113 696q0 211 76.5 378t213 260t310.5 93t310 -93t213 -260t77 -380q0 -211 -77 -375.5t-213 -258t-310 -93.5t-310.5 93.5t-213 259t-76.5 376.5zM268 696q0 -170 57.5 -304t159 -208.5t228.5 -74.5t228 74.5t158.5 208.5t57.5 304t-57.5 305.5t-158.5 211t-228 75.5 t-228.5 -75.5t-159 -211t-57.5 -305.5zM360 1538q10 80 60.5 137.5t140.5 57.5q43 0 79 -12.5t87 -39.5q41 -20 73.5 -31.5t65.5 -11.5q43 0 70.5 21.5t31.5 52.5h95q-10 -84 -56.5 -139t-140.5 -55q-45 0 -79 12t-73 35q-6 4 -33.5 16t-54 19.5t-55.5 7.5 q-53 0 -80.5 -16.5t-38.5 -53.5h-92z" />
<glyph unicode="&#xd6;" horiz-adv-x="1425" d="M113 696q0 211 76.5 378t213 260t310.5 93t310 -93t213 -260t77 -380q0 -211 -77 -375.5t-213 -258t-310 -93.5t-310.5 93.5t-213 259t-76.5 376.5zM268 696q0 -170 57.5 -304t159 -208.5t228.5 -74.5t228 74.5t158.5 208.5t57.5 304t-57.5 305.5t-158.5 211t-228 75.5 t-228.5 -75.5t-159 -211t-57.5 -305.5zM401 1667q0 45 31.5 77t79.5 32q45 0 78.5 -32t33.5 -79q0 -45 -33.5 -78t-78.5 -33q-48 0 -79.5 33t-31.5 80zM800 1667q0 45 33 77t80 32q45 0 78 -32t33 -79q0 -45 -33 -78t-78 -33q-47 0 -80 33t-33 80z" />
<glyph unicode="&#xd7;" horiz-adv-x="1024" d="M180 393l248 250l-233 234l79 81l236 -233l248 248l80 -80l-248 -248l248 -250l-82 -82l-248 250l-250 -250z" />
<glyph unicode="&#xd8;" horiz-adv-x="1425" d="M113 696q0 211 76.5 378t213 260t310.5 93q125 0 229 -49l68 144l106 -47l-74 -154q127 -94 199 -258t72 -369q0 -211 -77 -375.5t-213 -258t-310 -93.5q-147 0 -279 72l-80 -168l-100 49l88 186q-109 98 -169 251t-60 339zM268 696q0 -135 37 -248.5t107 -195.5l469 997 q-82 39 -168 39q-127 0 -228.5 -75.5t-159 -211t-57.5 -305.5zM498 174q96 -66 215 -65q127 0 228 74.5t158.5 208.5t57.5 304q0 154 -48 280t-132 206z" />
<glyph unicode="&#xd9;" horiz-adv-x="1351" d="M164 518v879h153v-879q0 -412 363 -412q164 0 259 106.5t95 305.5v879h154v-879q0 -266 -134 -408.5t-374 -142.5q-258 0 -387 140.5t-129 410.5zM420 1663l69 119l443 -228l-41 -69z" />
<glyph unicode="&#xda;" horiz-adv-x="1351" d="M164 518v879h153v-879q0 -412 363 -412q164 0 259 106.5t95 305.5v879h154v-879q0 -266 -134 -408.5t-374 -142.5q-258 0 -387 140.5t-129 410.5zM420 1554l442 228l70 -119l-471 -178z" />
<glyph unicode="&#xdb;" horiz-adv-x="1351" d="M164 518v879h153v-879q0 -412 363 -412q164 0 259 106.5t95 305.5v879h154v-879q0 -266 -134 -408.5t-374 -142.5q-258 0 -387 140.5t-129 410.5zM357 1579l317 213l320 -213l-39 -70l-281 138l-278 -138z" />
<glyph unicode="&#xdc;" horiz-adv-x="1351" d="M164 518v879h153v-879q0 -412 363 -412q164 0 259 106.5t95 305.5v879h154v-879q0 -266 -134 -408.5t-374 -142.5q-258 0 -387 140.5t-129 410.5zM365 1667q0 45 31.5 77t79.5 32q45 0 78.5 -32t33.5 -79q0 -45 -33.5 -78t-78.5 -33q-48 0 -79.5 33t-31.5 80zM764 1667 q0 45 33 77t80 32q45 0 78 -32t33 -79q0 -45 -33 -78t-78 -33q-47 0 -80 33t-33 80z" />
<glyph unicode="&#xdd;" horiz-adv-x="991" d="M-31 1397h154l381 -697l377 697h141l-453 -826v-571h-151v578zM240 1554l442 228l70 -119l-471 -178z" />
<glyph unicode="&#xde;" horiz-adv-x="1077" d="M164 0v1397h153v-205h295q188 0 301 -109.5t113 -302.5q0 -190 -117.5 -299.5t-312.5 -109.5h-277v-371h-155zM319 498h273q139 0 209.5 71.5t70.5 210.5t-71.5 212t-208.5 73h-273v-567z" />
<glyph unicode="&#xdf;" horiz-adv-x="1089" d="M164 0v1083q0 207 102.5 324t288.5 117q164 0 264.5 -101.5t100.5 -269.5q0 -104 -54.5 -183t-160.5 -126q150 -29 225.5 -132.5t75.5 -260.5q0 -217 -114 -339t-312 -122q-85 -1 -183 24l29 136q82 -25 152 -25q131 0 199.5 84t68.5 242q0 113 -32 183.5t-109.5 106 t-219.5 35.5v127q162 0 228.5 67.5t66.5 182.5q0 111 -58 171t-167 60q-129 0 -190.5 -74.5t-61.5 -226.5v-1083h-139z" />
<glyph unicode="&#xe0;" d="M70 481q0 147 60 263t168 181.5t245 65.5q104 0 191 -46t147 -130v143h139v-958h-139v141q-59 -82 -145.5 -128t-188.5 -46q-137 0 -245.5 65.5t-170 182.5t-61.5 266zM209 481q0 -113 43 -200.5t118.5 -137t172.5 -49.5q98 0 175 49.5t120 137.5t43 198q0 111 -43 199 t-120 137t-175 49q-96 0 -172 -49t-119 -136t-43 -198zM320 1278l69 119l381 -228l-41 -69z" />
<glyph unicode="&#xe1;" d="M70 481q0 147 60 263t168 181.5t245 65.5q104 0 191 -46t147 -130v143h139v-958h-139v141q-59 -82 -145.5 -128t-188.5 -46q-137 0 -245.5 65.5t-170 182.5t-61.5 266zM209 481q0 -113 43 -200.5t118.5 -137t172.5 -49.5q98 0 175 49.5t120 137.5t43 198q0 111 -43 199 t-120 137t-175 49q-96 0 -172 -49t-119 -136t-43 -198zM442 1169l381 228l70 -119l-410 -178z" />
<glyph unicode="&#xe2;" d="M70 481q0 147 60 263t168 181.5t245 65.5q104 0 191 -46t147 -130v143h139v-958h-139v141q-59 -82 -145.5 -128t-188.5 -46q-137 0 -245.5 65.5t-170 182.5t-61.5 266zM209 481q0 -113 43 -200.5t118.5 -137t172.5 -49.5q98 0 175 49.5t120 137.5t43 198q0 111 -43 199 t-120 137t-175 49q-96 0 -172 -49t-119 -136t-43 -198zM297 1231l276 254l279 -254l-39 -70l-240 158l-237 -158z" />
<glyph unicode="&#xe3;" d="M70 481q0 147 60 263t168 181.5t245 65.5q104 0 191 -46t147 -130v143h139v-958h-139v141q-59 -82 -145.5 -128t-188.5 -46q-137 0 -245.5 65.5t-170 182.5t-61.5 266zM209 481q0 -113 43 -200.5t118.5 -137t172.5 -49.5q98 0 175 49.5t120 137.5t43 198q0 111 -43 199 t-120 137t-175 49q-96 0 -172 -49t-119 -136t-43 -198zM223 1135q10 100 70.5 183t150.5 83q43 0 76 -17.5t80 -54.5q41 -33 68.5 -48t60.5 -15q43 0 70.5 38.5t31.5 96.5h95q-10 -106 -66.5 -186t-150.5 -80q-45 0 -74 16t-68 51q-37 33 -64.5 48.5t-68.5 15.5 q-53 0 -80.5 -32t-38.5 -99h-92z" />
<glyph unicode="&#xe4;" d="M70 481q0 147 60 263t168 181.5t245 65.5q104 0 191 -46t147 -130v143h139v-958h-139v141q-59 -82 -145.5 -128t-188.5 -46q-137 0 -245.5 65.5t-170 182.5t-61.5 266zM209 481q0 -113 43 -200.5t118.5 -137t172.5 -49.5q98 0 175 49.5t120 137.5t43 198q0 111 -43 199 t-120 137t-175 49q-96 0 -172 -49t-119 -136t-43 -198zM264 1257q0 45 31.5 77t79.5 32q45 0 78.5 -31.5t33.5 -79.5q0 -45 -33.5 -77.5t-78.5 -32.5q-48 0 -79.5 32.5t-31.5 79.5zM663 1257q0 45 33 77t80 32q45 0 78 -31.5t33 -79.5q0 -45 -33 -77.5t-78 -32.5 q-47 0 -80 32.5t-33 79.5z" />
<glyph unicode="&#xe5;" d="M70 481q0 147 60 263t168 181.5t245 65.5q104 0 191 -46t147 -130v143h139v-958h-139v141q-59 -82 -145.5 -128t-188.5 -46q-137 0 -245.5 65.5t-170 182.5t-61.5 266zM209 481q0 -113 43 -200.5t118.5 -137t172.5 -49.5q98 0 175 49.5t120 137.5t43 198q0 111 -43 199 t-120 137t-175 49q-96 0 -172 -49t-119 -136t-43 -198zM371 1350q0 84 59.5 144t143.5 60t144.5 -60t60.5 -144t-60.5 -143.5t-144.5 -59.5t-143.5 59.5t-59.5 143.5zM473 1352q0 -43 30 -74t73 -31q41 0 70.5 31t29.5 72q0 43 -29.5 72.5t-70.5 29.5q-43 0 -73 -29.5 t-30 -70.5z" />
<glyph unicode="&#xe6;" horiz-adv-x="1794" d="M113 272q0 100 62.5 173t165.5 111t224 38q80 0 119 -7t104 -30q-14 152 -83.5 232.5t-206.5 80.5q-78 0 -141.5 -30.5t-114.5 -94.5l-101 72q70 86 162 129t199 43q141 0 232 -58.5t126 -164.5q61 106 165.5 165.5t236.5 59.5q137 0 240.5 -58.5t160.5 -164.5t57 -246 q0 -23 -4 -71h-788q8 -147 96 -252t240 -105q123 0 203.5 46t129.5 128l111 -73q-68 -106 -178.5 -167t-261.5 -61q-104 0 -193.5 39t-154.5 109q-100 -76 -196.5 -112t-219.5 -36q-176 0 -283.5 79t-107.5 226zM266 279q0 -94 66.5 -139.5t189.5 -45.5q176 0 332 111 q-59 113 -66 244q-109 23 -202 22q-141 0 -230.5 -49t-89.5 -143zM936 565h643q-20 150 -100 224.5t-217 74.5q-133 0 -218.5 -85t-107.5 -214z" />
<glyph unicode="&#xe7;" horiz-adv-x="976" d="M66 479q0 147 60 264t168.5 182.5t246.5 65.5q117 0 203.5 -50t158.5 -142l-102 -80q-100 145 -260 145q-96 0 -173 -49t-120 -137t-43 -199t43 -198.5t119.5 -137t173.5 -49.5q98 0 161.5 34t114.5 99l109 -75q-64 -80 -156 -129.5t-199 -55.5l-51 -106q104 0 161.5 -35 t57.5 -82q0 -154 -420 -154v56q102 0 195 24q92 20 92 62q0 23 -16.5 34t-63.5 17t-141 6l86 184q-121 16 -212 85t-142 177.5t-51 243.5z" />
<glyph unicode="&#xe8;" horiz-adv-x="1075" d="M70 479q0 147 60 264t168 182.5t245 65.5q129 0 233.5 -63.5t163.5 -173t59 -244.5q0 -39 -2 -59h-788q8 -147 96 -252t240 -105q123 0 203.5 46t130.5 128l110 -73q-68 -106 -178.5 -167t-261.5 -61q-139 0 -247.5 65.5t-170 182.5t-61.5 264zM217 565h643 q-20 150 -100 224.5t-217 74.5q-133 0 -218 -85t-108 -214zM283 1278l69 119l381 -228l-41 -69z" />
<glyph unicode="&#xe9;" horiz-adv-x="1075" d="M70 479q0 147 60 264t168 182.5t245 65.5q129 0 233.5 -63.5t163.5 -173t59 -244.5q0 -39 -2 -59h-788q8 -147 96 -252t240 -105q123 0 203.5 46t130.5 128l110 -73q-68 -106 -178.5 -167t-261.5 -61q-139 0 -247.5 65.5t-170 182.5t-61.5 264zM217 565h643 q-20 150 -100 224.5t-217 74.5q-133 0 -218 -85t-108 -214zM405 1169l381 228l70 -119l-410 -178z" />
<glyph unicode="&#xea;" horiz-adv-x="1075" d="M70 479q0 147 60 264t168 182.5t245 65.5q129 0 233.5 -63.5t163.5 -173t59 -244.5q0 -39 -2 -59h-788q8 -147 96 -252t240 -105q123 0 203.5 46t130.5 128l110 -73q-68 -106 -178.5 -167t-261.5 -61q-139 0 -247.5 65.5t-170 182.5t-61.5 264zM217 565h643 q-20 150 -100 224.5t-217 74.5q-133 0 -218 -85t-108 -214zM261 1231l276 254l279 -254l-39 -70l-240 158l-237 -158z" />
<glyph unicode="&#xeb;" horiz-adv-x="1075" d="M70 479q0 147 60 264t168 182.5t245 65.5q129 0 233.5 -63.5t163.5 -173t59 -244.5q0 -39 -2 -59h-788q8 -147 96 -252t240 -105q123 0 203.5 46t130.5 128l110 -73q-68 -106 -178.5 -167t-261.5 -61q-139 0 -247.5 65.5t-170 182.5t-61.5 264zM217 565h643 q-20 150 -100 224.5t-217 74.5q-133 0 -218 -85t-108 -214zM227 1257q0 45 31.5 77t79.5 32q45 0 78.5 -31.5t33.5 -79.5q0 -45 -33.5 -77.5t-78.5 -32.5q-48 0 -79.5 32.5t-31.5 79.5zM626 1257q0 45 33 77t80 32q45 0 78 -31.5t33 -79.5q0 -45 -33 -77.5t-78 -32.5 q-47 0 -80 32.5t-33 79.5z" />
<glyph unicode="&#xec;" horiz-adv-x="548" d="M2 1370l94 82l236 -307l-74 -64zM205 0v958h139v-958h-139z" />
<glyph unicode="&#xed;" horiz-adv-x="548" d="M180 1145l235 307l95 -82l-256 -289zM205 0v958h139v-958h-139z" />
<glyph unicode="&#xee;" horiz-adv-x="548" d="M37 1221l237 254l236 -254l-74 -60l-160 148l-170 -148zM205 0v958h139v-958h-139z" />
<glyph unicode="&#xef;" horiz-adv-x="548" d="M14 1257q0 41 29 70t72 29q41 0 71.5 -29t30.5 -72q0 -39 -30.5 -69.5t-71.5 -30.5q-43 0 -72 29.5t-29 72.5zM205 0v958h139v-958h-139zM332 1257q0 41 29.5 70t72.5 29q41 0 71 -29t30 -72q0 -39 -31 -69.5t-70 -30.5q-43 0 -72.5 29.5t-29.5 72.5z" />
<glyph unicode="&#xf0;" horiz-adv-x="1087" d="M70 481q0 147 60 263t168 181.5t245 65.5q92 0 180 -50t143 -138q-27 174 -96.5 286.5t-181.5 186.5l-115 -129l-65 61l102 113q-72 37 -178 72l51 100q111 -39 203 -88l110 123l64 -60l-96 -108q184 -121 268 -323.5t88 -557.5v-12v-25q-8 -137 -70.5 -245.5t-167 -169 t-235.5 -60.5q-137 0 -245.5 65.5t-170 182.5t-61.5 266zM209 481q0 -113 43 -200.5t118.5 -137t172.5 -49.5q98 0 175 49.5t120 137.5t43 198q0 111 -43 199t-120 137t-175 49q-96 0 -172 -49t-119 -136t-43 -198z" />
<glyph unicode="&#xf1;" horiz-adv-x="1099" d="M129 0v958h139v-159q49 92 130 142t188 50q100 0 185 -41t135 -120.5t50 -188.5v-641h-139v580q0 285 -254 284q-147 0 -221 -104.5t-74 -280.5v-479h-139zM219 1135q10 100 70.5 183t150.5 83q43 0 76 -17.5t80 -54.5q41 -33 68.5 -48t60.5 -15q43 0 70.5 38.5 t31.5 96.5h95q-10 -106 -66.5 -186t-150.5 -80q-45 0 -74 16t-68 51q-37 33 -64.5 48.5t-68.5 15.5q-53 0 -80.5 -32t-38.5 -99h-92z" />
<glyph unicode="&#xf2;" horiz-adv-x="1087" d="M70 481q0 147 60 263t168 181.5t245 65.5t245.5 -65.5t170 -182t61.5 -264.5q0 -147 -60.5 -264t-168 -182.5t-244.5 -65.5t-245.5 65.5t-170 183.5t-61.5 265zM209 481q0 -113 43 -200.5t118.5 -137t172.5 -49.5q98 0 175 49.5t120 137.5t43 198q0 111 -43 199t-120 137 t-175 49q-96 0 -172 -49t-119 -136t-43 -198zM289 1278l69 119l381 -228l-41 -69z" />
<glyph unicode="&#xf3;" horiz-adv-x="1087" d="M70 481q0 147 60 263t168 181.5t245 65.5t245.5 -65.5t170 -182t61.5 -264.5q0 -147 -60.5 -264t-168 -182.5t-244.5 -65.5t-245.5 65.5t-170 183.5t-61.5 265zM209 481q0 -113 43 -200.5t118.5 -137t172.5 -49.5q98 0 175 49.5t120 137.5t43 198q0 111 -43 199t-120 137 t-175 49q-96 0 -172 -49t-119 -136t-43 -198zM411 1169l381 228l70 -119l-410 -178z" />
<glyph unicode="&#xf4;" horiz-adv-x="1087" d="M70 481q0 147 60 263t168 181.5t245 65.5t245.5 -65.5t170 -182t61.5 -264.5q0 -147 -60.5 -264t-168 -182.5t-244.5 -65.5t-245.5 65.5t-170 183.5t-61.5 265zM209 481q0 -113 43 -200.5t118.5 -137t172.5 -49.5q98 0 175 49.5t120 137.5t43 198q0 111 -43 199t-120 137 t-175 49q-96 0 -172 -49t-119 -136t-43 -198zM267 1231l276 254l279 -254l-39 -70l-240 158l-237 -158z" />
<glyph unicode="&#xf5;" horiz-adv-x="1087" d="M70 481q0 147 60 263t168 181.5t245 65.5t245.5 -65.5t170 -182t61.5 -264.5q0 -147 -60.5 -264t-168 -182.5t-244.5 -65.5t-245.5 65.5t-170 183.5t-61.5 265zM192 1135q10 100 70.5 183t150.5 83q43 0 76 -17.5t80 -54.5q41 -33 68.5 -48t60.5 -15q43 0 70.5 38.5 t31.5 96.5h95q-10 -106 -66.5 -186t-150.5 -80q-45 0 -74 16t-68 51q-37 33 -64.5 48.5t-68.5 15.5q-53 0 -80.5 -32t-38.5 -99h-92zM209 481q0 -113 43 -200.5t118.5 -137t172.5 -49.5q98 0 175 49.5t120 137.5t43 198q0 111 -43 199t-120 137t-175 49q-96 0 -172 -49 t-119 -136t-43 -198z" />
<glyph unicode="&#xf6;" horiz-adv-x="1087" d="M70 481q0 147 60 263t168 181.5t245 65.5t245.5 -65.5t170 -182t61.5 -264.5q0 -147 -60.5 -264t-168 -182.5t-244.5 -65.5t-245.5 65.5t-170 183.5t-61.5 265zM209 481q0 -113 43 -200.5t118.5 -137t172.5 -49.5q98 0 175 49.5t120 137.5t43 198q0 111 -43 199t-120 137 t-175 49q-96 0 -172 -49t-119 -136t-43 -198zM233 1257q0 45 31.5 77t79.5 32q45 0 78.5 -31.5t33.5 -79.5q0 -45 -33.5 -77.5t-78.5 -32.5q-48 0 -79.5 32.5t-31.5 79.5zM632 1257q0 45 33 77t80 32q45 0 78 -31.5t33 -79.5q0 -45 -33 -77.5t-78 -32.5q-47 0 -80 32.5 t-33 79.5z" />
<glyph unicode="&#xf7;" horiz-adv-x="1024" d="M102 580v112h820v-112h-820zM401 301q0 45 33 78t78 33q47 0 79 -33t32 -80q0 -45 -32 -78t-79 -33q-45 0 -78 33t-33 80zM401 938q0 45 33 78t78 33q47 0 79 -33t32 -78t-32 -79t-79 -34q-45 0 -78 34t-33 79z" />
<glyph unicode="&#xf8;" horiz-adv-x="1087" d="M70 481q0 147 60 263t168 181.5t245 65.5q86 0 166 -28l84 180l106 -47l-86 -185q96 -67 151.5 -180t55.5 -252q0 -147 -60.5 -264t-168 -182.5t-244.5 -65.5q-80 0 -164 27l-57 -121l-105 47l60 127q-100 68 -155.5 180.5t-55.5 253.5zM209 481q0 -100 33.5 -181 t95.5 -132l315 678q-49 18 -110 18q-96 0 -172 -49t-119 -136t-43 -198zM438 111q53 -16 105 -17q98 0 175 49.5t120 137.5t43 198q0 96 -33 176t-94 133z" />
<glyph unicode="&#xf9;" horiz-adv-x="1099" d="M143 317v641h140v-579q0 -285 254 -285q147 0 220.5 104.5t73.5 280.5v479h140v-958h-140v160q-49 -92 -129.5 -142.5t-187.5 -50.5q-100 0 -185 41t-135.5 121t-50.5 188zM295 1278l69 119l381 -228l-41 -69z" />
<glyph unicode="&#xfa;" horiz-adv-x="1099" d="M143 317v641h140v-579q0 -285 254 -285q147 0 220.5 104.5t73.5 280.5v479h140v-958h-140v160q-49 -92 -129.5 -142.5t-187.5 -50.5q-100 0 -185 41t-135.5 121t-50.5 188zM417 1169l381 228l70 -119l-410 -178z" />
<glyph unicode="&#xfb;" horiz-adv-x="1099" d="M143 317v641h140v-579q0 -285 254 -285q147 0 220.5 104.5t73.5 280.5v479h140v-958h-140v160q-49 -92 -129.5 -142.5t-187.5 -50.5q-100 0 -185 41t-135.5 121t-50.5 188zM273 1231l276 254l279 -254l-39 -70l-240 158l-237 -158z" />
<glyph unicode="&#xfc;" horiz-adv-x="1099" d="M143 317v641h140v-579q0 -285 254 -285q147 0 220.5 104.5t73.5 280.5v479h140v-958h-140v160q-49 -92 -129.5 -142.5t-187.5 -50.5q-100 0 -185 41t-135.5 121t-50.5 188zM240 1257q0 45 31.5 77t79.5 32q45 0 78.5 -31.5t33.5 -79.5q0 -45 -33.5 -77.5t-78.5 -32.5 q-48 0 -79.5 32.5t-31.5 79.5zM639 1257q0 45 33 77t80 32q45 0 78 -31.5t33 -79.5q0 -45 -33 -77.5t-78 -32.5q-47 0 -80 32.5t-33 79.5z" />
<glyph unicode="&#xfd;" horiz-adv-x="919" d="M20 958h146l317 -794l305 794h132l-519 -1368h-139l152 392zM327 1169l381 228l70 -119l-410 -178z" />
<glyph unicode="&#xfe;" horiz-adv-x="1157" d="M139 -410v1807h140v-580q59 82 145 128t188 46q138 0 246.5 -65.5t170 -182t61.5 -266.5q0 -147 -60.5 -263t-168 -181.5t-245.5 -65.5q-104 0 -191 46t-146 130v-553h-140zM279 479q0 -111 43 -198.5t119.5 -137t174.5 -49.5q97 0 172.5 49.5t118.5 136.5t43 197 q0 113 -43 201t-118.5 137t-172.5 49q-98 0 -174.5 -49t-119.5 -137t-43 -199z" />
<glyph unicode="&#xff;" horiz-adv-x="919" d="M20 958h146l317 -794l305 794h132l-519 -1368h-139l152 392zM149 1257q0 45 31.5 77t79.5 32q45 0 78.5 -31.5t33.5 -79.5q0 -45 -33.5 -77.5t-78.5 -32.5q-48 0 -79.5 32.5t-31.5 79.5zM548 1257q0 45 33 77t80 32q45 0 78 -31.5t33 -79.5q0 -45 -33 -77.5t-78 -32.5 q-47 0 -80 32.5t-33 79.5z" />
<glyph unicode="&#x152;" horiz-adv-x="1699" d="M113 696q0 211 76.5 378t213 260t310.5 93q100 0 186 -30h715v-129h-629v-488h492v-125h-492v-528h635v-127h-715q-86 -33 -192 -33q-174 0 -310.5 93.5t-213 259t-76.5 376.5zM274 696q0 -170 56.5 -304t156 -208.5t226.5 -74.5q63 0 118 18v1143q-55 18 -118 18 q-127 0 -226.5 -75.5t-156 -211t-56.5 -305.5z" />
<glyph unicode="&#x153;" horiz-adv-x="1886" d="M70 481q0 147 60 263t168 181.5t245 65.5q133 0 239.5 -61.5t167.5 -169.5q61 109 166 170t238 61q129 0 233.5 -63.5t163.5 -173t59 -244.5q0 -39 -2 -59h-788q8 -147 96 -252t240 -105q123 0 203.5 46t130.5 128l110 -73q-68 -106 -178.5 -167t-261.5 -61 q-133 0 -240.5 61.5t-169.5 170.5q-61 -109 -165.5 -170.5t-237.5 -61.5q-137 0 -245.5 65.5t-170 182.5t-61.5 266zM209 481q0 -113 43 -200.5t118.5 -137t172.5 -49.5q98 0 175 49.5t120 137.5t43 198q0 111 -43 199t-120 137t-175 49q-96 0 -172 -49t-119 -136t-43 -198z M1028 565h643q-20 150 -100 224.5t-217 74.5q-133 0 -218 -85t-108 -214z" />
<glyph unicode="&#x178;" horiz-adv-x="991" d="M-31 1397h154l381 -697l377 697h141l-453 -826v-571h-151v578zM184 1667q0 45 31.5 77t79.5 32q45 0 78.5 -32t33.5 -79q0 -45 -33.5 -78t-78.5 -33q-48 0 -79.5 33t-31.5 80zM583 1667q0 45 33 77t80 32q45 0 78 -32t33 -79q0 -45 -33 -78t-78 -33q-47 0 -80 33t-33 80z " />
<glyph unicode="&#x2c6;" horiz-adv-x="837" d="M121 1231l276 254l279 -254l-39 -70l-240 158l-237 -158z" />
<glyph unicode="&#x2dc;" horiz-adv-x="985" d="M121 1161q10 96 78 180q68 86 153 86q66 0 135 -65q70 -63 105 -64q51 0 91 40t46 89h94q-12 -96 -80 -182q-66 -84 -151 -84q-66 0 -137 66q-72 66 -103 65q-51 0 -92 -40t-47 -91h-92z" />
<glyph unicode="&#x2000;" horiz-adv-x="961" />
<glyph unicode="&#x2001;" horiz-adv-x="1923" />
<glyph unicode="&#x2002;" horiz-adv-x="961" />
<glyph unicode="&#x2003;" horiz-adv-x="1923" />
<glyph unicode="&#x2004;" horiz-adv-x="641" />
<glyph unicode="&#x2005;" horiz-adv-x="480" />
<glyph unicode="&#x2006;" horiz-adv-x="320" />
<glyph unicode="&#x2007;" horiz-adv-x="320" />
<glyph unicode="&#x2008;" horiz-adv-x="240" />
<glyph unicode="&#x2009;" horiz-adv-x="384" />
<glyph unicode="&#x200a;" horiz-adv-x="106" />
<glyph unicode="&#x2010;" horiz-adv-x="696" d="M117 446v115h465v-115h-465z" />
<glyph unicode="&#x2011;" horiz-adv-x="696" d="M117 446v115h465v-115h-465z" />
<glyph unicode="&#x2012;" horiz-adv-x="696" d="M117 446v115h465v-115h-465z" />
<glyph unicode="&#x2013;" horiz-adv-x="1079" d="M115 436v113h852v-113h-852z" />
<glyph unicode="&#x2014;" horiz-adv-x="1480" d="M115 436v113h1251v-113h-1251z" />
<glyph unicode="&#x2018;" horiz-adv-x="385" d="M86 1264q0 94 53.5 188t132.5 147l33 -20q-80 -78 -108 -211q45 0 77.5 -32.5t32.5 -78.5q0 -47 -31.5 -78.5t-78.5 -31.5q-45 0 -78 32.5t-33 84.5z" />
<glyph unicode="&#x2019;" horiz-adv-x="344" d="M80 1485q0 45 31.5 77.5t76.5 32.5q49 0 81 -30.5t32 -81.5q0 -106 -51 -202.5t-133 -139.5l-35 20q78 78 108 211q-47 0 -78.5 33t-31.5 80z" />
<glyph unicode="&#x201a;" horiz-adv-x="417" d="M98 96q0 45 32 78t77 33q47 0 79.5 -39t32.5 -92q0 -86 -52 -179.5t-132 -144.5l-35 21q78 78 109 211q-47 0 -79 32.5t-32 79.5z" />
<glyph unicode="&#x201c;" horiz-adv-x="706" d="M86 1255q0 109 54.5 207.5t131.5 136.5l33 -20q-82 -78 -106 -211q45 0 76.5 -32.5t31.5 -78.5q0 -47 -31.5 -78.5t-78.5 -31.5q-45 0 -78 31.5t-33 76.5zM403 1255q0 106 51.5 203.5t135.5 140.5l33 -20q-78 -78 -109 -211q45 0 78 -32.5t33 -78.5q0 -47 -32 -78.5 t-77 -31.5t-79 31.5t-34 76.5z" />
<glyph unicode="&#x201d;" horiz-adv-x="700" d="M80 1485q0 45 31.5 77.5t76.5 32.5q47 0 80 -32.5t33 -77.5q0 -111 -49 -203t-135 -141l-35 20q78 78 108 211q-47 0 -78.5 33t-31.5 80zM397 1485q0 45 33 77.5t78 32.5q47 0 78.5 -32.5t31.5 -77.5q0 -113 -50 -205t-134 -139l-35 20q78 78 109 211q-45 0 -78 33 t-33 80z" />
<glyph unicode="&#x201e;" horiz-adv-x="817" d="M98 96q0 45 32 78t77 33q47 0 79.5 -33t32.5 -78q2 -109 -46 -201t-138 -143l-35 21q78 78 109 211q-47 0 -79 32.5t-32 79.5zM498 96q0 45 31.5 78t76.5 33q47 0 80 -33t33 -78q0 -80 -16.5 -132t-54.5 -98t-113 -114l-35 21q78 78 108 211q-47 0 -78.5 32.5t-31.5 79.5 z" />
<glyph unicode="&#x2022;" horiz-adv-x="673" d="M92 489q0 63 34 121t91 91.5t121 33.5q104 0 174 -72.5t70 -177.5q0 -102 -70 -173.5t-174 -71.5q-66 0 -122 32.5t-90 90t-34 126.5z" />
<glyph unicode="&#x2026;" horiz-adv-x="1214" d="M98 96q0 45 32 78t77 33q47 0 79.5 -33t32.5 -80q0 -45 -32.5 -77.5t-79.5 -32.5q-45 0 -77 32.5t-32 79.5zM497 96q0 45 32 78t77 33q47 0 79.5 -33t32.5 -80q0 -45 -32.5 -77.5t-79.5 -32.5q-45 0 -77 32.5t-32 79.5zM897 96q0 45 32 78t77 33q47 0 79.5 -33t32.5 -80 q0 -45 -32.5 -77.5t-79.5 -32.5q-45 0 -77 32.5t-32 79.5z" />
<glyph unicode="&#x202f;" horiz-adv-x="384" />
<glyph unicode="&#x2039;" horiz-adv-x="684" d="M82 549l391 383l88 -78l-291 -303l291 -307l-88 -76z" />
<glyph unicode="&#x203a;" horiz-adv-x="684" d="M123 244l291 307l-291 303l88 78l391 -383l-391 -381z" />
<glyph unicode="&#x205f;" horiz-adv-x="480" />
<glyph unicode="&#x20ac;" horiz-adv-x="1280" d="M20 496l35 110h101q-2 29 -2 88q0 45 2 66h-136l35 110h109q37 264 178 410.5t363 146.5q174 0 297.5 -76.5t193.5 -215.5l-123 -72q-66 121 -154 173t-214 52q-152 0 -250.5 -108.5t-126.5 -309.5h489l-35 -110h-465q-2 -20 -2 -64q0 -33 4 -90h416l-35 -110h-368 q35 -184 132 -287t238 -103q145 0 226.5 65t150.5 202l129 -78q-74 -160 -195.5 -244t-289.5 -84q-223 0 -368.5 138.5t-186.5 390.5h-148z" />
<glyph unicode="&#x2122;" horiz-adv-x="1204" d="M98 1395v92h369v-92h-135v-422h-101v422h-133zM553 973v514h98l144 -367l143 367h98v-514h-102v307l-117 -307h-47l-117 307v-307h-100z" />
<glyph unicode="&#x25fc;" horiz-adv-x="962" d="M0 0v963h963v-963h-963z" />
<glyph unicode="&#xfb03;" horiz-adv-x="1599" d="M57 831v127h123v261q0 133 85 218t218 85h58v-127h-58q-72 0 -118 -49.5t-46 -126.5v-261h424v261q0 133 85 218t219 85h57v-127h-57q-72 0 -118 -49.5t-46 -126.5v-261h512v-958h-140v831h-372v-831h-140v831h-424v-831h-139v831h-123zM1214 1257q0 45 32 77t79 32 q45 0 78 -31.5t33 -79.5q0 -45 -33 -77.5t-78 -32.5q-47 0 -79 32.5t-32 79.5z" />
<glyph unicode="&#xfb04;" horiz-adv-x="1542" d="M57 831v127h123v261q0 133 85 218t218 85h58v-127h-58q-72 0 -118 -49.5t-46 -126.5v-261h424v261q0 133 96.5 218t247.5 85q127 0 318 -35v-1487h-139v1384q-88 12 -179 13q-90 0 -147 -50.5t-57 -127.5v-261h221v-127h-221v-831h-140v831h-424v-831h-139v831h-123z" />
</font>
</defs>
</svg>
